<svg xmlns="http://www.w3.org/2000/svg" preserveAspectRatio="none" viewBox="0 0 1440 320" transform="rotate(180)">
    <defs>
        <linearGradient id="a" x1="0%" y1="0%" x2="100%" y2="0%">
            <stop offset="0%" stop-color="#1e88e5" />
            <stop offset="100%" stop-color="#8e24aa" />
        </linearGradient>
        <filter id="b" x="-50%" y="-50%" width="200%" height="200%">
            <feOffset dy="20" />
            <feGaussianBlur stdDeviation="8" result="offset-blur" />
            <feComposite operator="out" in="SourceGraphic" in2="offset-blur" result="inverse" />
            <feFlood flood-color="#000" flood-opacity=".5" result="color" />
            <feComposite operator="in" in="color" in2="inverse" result="shadow" />
            <feComposite in="shadow" in2="SourceGraphic" />
        </filter>
    </defs>
    <g fill="url(#a)" fill-rule="nonzero" stroke="none" stroke-width="1" stroke-linecap="butt" stroke-linejoin="miter" stroke-miterlimit="10" stroke-dasharray="" stroke-dashoffset="0" font-family="none" font-weight="none" font-size="none" text-anchor="none" style="mix-blend-mode: normal">
        <path d="M0,320v-320h1440v320z"></path>
    </g>
    <path fill="#1E293B" filter="url(#b)"
        d="M0,96L7.7,85.3C15.5,75,31,53,46,69.3C61.9,85,77,139,93,154.7C108.4,171,124,149,139,128C154.8,107,170,85,186,85.3C201.3,85,217,107,232,101.3C247.7,96,263,64,279,90.7C294.2,117,310,203,325,213.3C340.6,224,356,160,372,117.3C387.1,75,403,53,418,80C433.5,107,449,181,465,224C480,267,495,277,511,240C526.5,203,542,117,557,80C572.9,43,588,53,604,64C619.4,75,635,85,650,128C665.8,171,681,245,697,277.3C712.3,309,728,299,743,256C758.7,213,774,139,790,138.7C805.2,139,821,213,836,202.7C851.6,192,867,96,883,69.3C898.1,43,914,85,929,90.7C944.5,96,960,64,975,74.7C991,85,1006,139,1022,144C1037.4,149,1053,107,1068,122.7C1083.9,139,1099,213,1115,208C1130.3,203,1146,117,1161,74.7C1176.8,32,1192,32,1208,26.7C1223.2,21,1239,11,1254,42.7C1269.7,75,1285,149,1301,192C1316.1,235,1332,245,1347,229.3C1362.6,213,1378,171,1394,144C1409,117,1425,107,1432,101.3L1440,96L1440,320L1432.3,320C1424.5,320,1409,320,1394,320C1378.1,320,1363,320,1347,320C1331.6,320,1316,320,1301,320C1285.2,320,1270,320,1254,320C1238.7,320,1223,320,1208,320C1192.3,320,1177,320,1161,320C1145.8,320,1130,320,1115,320C1099.4,320,1084,320,1068,320C1052.9,320,1037,320,1022,320C1006.5,320,991,320,975,320C960,320,945,320,929,320C913.5,320,898,320,883,320C867.1,320,852,320,836,320C820.6,320,805,320,790,320C774.2,320,759,320,743,320C727.7,320,712,320,697,320C681.3,320,666,320,650,320C634.8,320,619,320,604,320C588.4,320,573,320,557,320C541.9,320,526,320,511,320C495.5,320,480,320,465,320C449,320,434,320,418,320C402.6,320,387,320,372,320C356.1,320,341,320,325,320C309.7,320,294,320,279,320C263.2,320,248,320,232,320C216.8,320,201,320,186,320C170.3,320,155,320,139,320C123.9,320,108,320,93,320C77.4,320,62,320,46,320C31,320,15,320,8,320L0,320Z"
    />
</svg>